# xmcd
#
# Track frame offsets: 
#        150
#        15787
#        27817
#        40252
#        56240
#        74717
#        89472
#        101787
#        113830
#        130880
#        147580
#        171365
#
# Disc length: 2455 seconds
#
# Revision: 4
# Processed by: cddbd v1.5.2PL0 Copyright (c) Steve Scherf et al.
# Submitted via: ExactAudioCopy v0.99pb4
#
DISCID=ac09950c
DTITLE=Magic Slim and the Teardrops - Scufflin'
DYEAR=1996
DGENRE=Blues
TTITLE0=Think
TTITLE1=Hole In The Wall
TTITLE2=Scufflin'
TTITLE3=Down In Virginia
TTITLE4=I'm Not The Same Person
TTITLE5=Just Before You Go
TTITLE6=I'm Gonna Send You Back To Georgia
TTITLE7=Room 109
TTITLE8=I Need Lovin'
TTITLE9=I'm Gonna Get You Babe
TTITLE10=Lookin' For A Lover
TTITLE11=Can't Get No Grindin'
EXTD=YEAR: 1996
EXTT0=
EXTT1=
EXTT2=
EXTT3=
EXTT4=
EXTT5=
EXTT6=
EXTT7=
EXTT8=
EXTT9=
EXTT10=
EXTT11=
PLAYORDER=
